<svg xmlns="http://www.w3.org/2000/svg" xmlns:xlink="http://www.w3.org/1999/xlink" viewBox="0 0 1024 1024"><defs><style>.cls-1{fill:url(#linear-gradient);}.cls-2{fill:url(#linear-gradient-2);}.cls-3{fill:url(#radial-gradient);}</style><linearGradient id="linear-gradient" x1="512" y1="1023.5" x2="512" y2="0.5" gradientUnits="userSpaceOnUse"><stop offset="0" stop-color="#2c2c2e"/><stop offset="1" stop-color="#1c1c1e"/></linearGradient><linearGradient id="linear-gradient-2" x1="254.09" y1="363.08" x2="535.1" y2="644.09" gradientUnits="userSpaceOnUse"><stop offset="0.01" stop-color="#005b97"/><stop offset="0.27" stop-color="#0075be"/><stop offset="0.62" stop-color="#1e9cd7"/><stop offset="0.69" stop-color="#47acde"/><stop offset="0.79" stop-color="#80c2e7"/><stop offset="0.88" stop-color="#a9d2ee"/><stop offset="0.96" stop-color="#c3dcf2"/><stop offset="1" stop-color="#cce0f4"/></linearGradient><radialGradient id="radial-gradient" cx="668.7" cy="515.48" r="246.74" gradientUnits="userSpaceOnUse"><stop offset="0" stop-color="#fff"/><stop offset="0.05" stop-color="#fff2e9"/><stop offset="0.19" stop-color="#ffd3b4"/><stop offset="0.33" stop-color="#ffb986"/><stop offset="0.47" stop-color="#ffa360"/><stop offset="0.6" stop-color="#ff9243"/><stop offset="0.74" stop-color="#ff862f"/><stop offset="0.87" stop-color="#ff7e22"/><stop offset="1" stop-color="#ff7c1e"/></radialGradient></defs><g id="Layer_2" data-name="Layer 2"><rect class="cls-1" x="0.5" y="0.5" width="1023" height="1023"/><path d="M1023,1V1023H1V1H1023m1-1H0V1024H1024V0Z"/></g><g id="Layer_1" data-name="Layer 1"><path class="cls-2" d="M384.32,492.91c93.33,60.67,216.49,76.5,301.42-7.72-.16.36.53,1.41,1,1.58C482.3,753.19,337,433,116.46,511.73c-1.26-1.31-15.88,7.42-17.14,6.12C185.09,445.79,289.58,447,384.32,492.91Z"/><path class="cls-3" d="M632.19,578.78c21.15-12.17,38.16-29.12,53.83-47.45,24-28.06,41.69-59.58,51.16-95.55,1-3.9,4.51-7.7,7.8-10.38,9.61-7.81,39.46-24.95,40.19-24.24-1.24,2.74-40.12,65.6-46.91,76.43,14.23,4.05,44.37,9.11,46.08,9.6,2.46.34,128.91,25.89,140.34,28.59-2.87,1.23-8.68,2-10.27,2.27-56.51,10.87-172.28,34.27-175,35.82,6.73,10.81,46.52,74.85,47.48,76.46-2.81,4.92-56.12-33.86-82.24-51.3-6.94,29.52-36.06,173-38,178.91C665.85,754.57,632.19,579.52,632.19,578.78Zm67.49-150.22c-7-37.77-28.81-146.07-32.43-162.5-1,3.94-6.08,27.18-7.56,34.86.12.46-27.47,147-28.91,153.42-9.25-6.89-77.13-53.95-78.55-54.39-.41.41,30.09,53.7,46.51,81.24l-122.42,25a115.51,115.51,0,0,0,23.87,7.84c27.61,6.1,55.42,6.5,82.78-.54,30.56-7.88,58.27-22,82-43,11.5-10.2,23.09-22.13,34.32-32.62C699.68,434.35,700.3,431.88,699.68,428.56Z"/></g></svg>